<svg xmlns="http://www.w3.org/2000/svg" viewBox="0 0 32 32" width="32" height="32">
  <defs>
    <linearGradient id="gradient" x1="0%" y1="0%" x2="100%" y2="100%">
      <stop offset="0%" style="stop-color:#064e3b;stop-opacity:1" />
      <stop offset="50%" style="stop-color:#065f46;stop-opacity:1" />
      <stop offset="100%" style="stop-color:#10b981;stop-opacity:1" />
    </linearGradient>
  </defs>
  
  <!-- Fondo circular -->
  <circle cx="16" cy="16" r="15" fill="url(#gradient)" stroke="#ffffff" stroke-width="1"/>
  
  <!-- Letra D -->
  <path d="M8 8 L8 24 L12 24 Q16 24 16 20 L16 12 Q16 8 12 8 Z" fill="#ffffff"/>
  <path d="M10 10 L10 22 L12 22 Q14 22 14 20 L14 12 Q14 10 12 10 Z" fill="url(#gradient)"/>
  
  <!-- Letra B -->
  <path d="M18 8 L18 24 L24 24 Q26 24 26 22 L26 20 Q26 18 24 18 L26 16 Q26 14 24 14 L26 12 Q26 10 24 10 Z" fill="#ffffff"/>
  <path d="M20 10 L20 22 L24 22 Q25 22 25 21 L25 19 Q25 18 24 18 L25 16 Q25 15 24 15 L25 13 Q25 12 24 12 Z" fill="url(#gradient)"/>
  <path d="M20 10 L20 14 L24 14 Q25 14 25 13 L25 11 Q25 10 24 10 Z" fill="url(#gradient)"/>
</svg>
